<svg width="256" height="256" xmlns="http://www.w3.org/2000/svg" data-name="1p" viewBox = "0 0 256 256">
    <path id="svg_5" fill="#FFF" d="m128,2.1842c-69.56653,0 -126.02632,56.45979 -126.02632,126.02632s56.45979,126.02632 126.02632,126.02632s126.02632,-56.45979 126.02632,-126.02632s-56.45979,-126.02632 -126.02632,-126.02632z" class="cls-1" stroke="null"/>
    <path id="svg_2" fill="#F5A9B8" d="m128,69.39824c-32.43077,0 -58.81228,26.38151 -58.81228,58.81228s26.38151,58.81228 58.81228,58.81228s58.81228,-26.38151 58.81228,-58.81228s-26.38151,-58.81228 -58.81228,-58.81228zm0,4.87302c18.14779,0 22.68474,5.54516 21.50849,15.29119c-1.17625,9.74604 -11.76246,20.50028 -14.45102,20.50028c-0.67214,0 -1.34428,0 -1.84839,0l3.86481,-14.28298l-0.50411,0s-3.86481,14.11495 -3.86481,14.11495c-1.34428,0 -2.52053,-0.50411 -4.53695,-0.50411l0,-19.32404l-0.50411,0l0,19.32404c-2.01642,0 -3.19267,0.50411 -4.53695,0.50411l-3.86481,-14.28298l-0.50411,0s3.86481,14.28298 3.86481,14.28298c-0.50411,0 -1.17625,0 -1.84839,0c-2.68856,0 -13.27477,-10.75425 -14.45102,-20.50028c-1.17625,-9.74604 3.52874,-15.29119 21.50849,-15.29119l0.16804,0.16804l0.00003,-0.00001zm-51.25071,37.13576c5.54516,-17.13958 12.26656,-19.82814 21.17242,-15.7953c8.90586,4.03284 15.7953,17.47565 14.95512,19.99618c-0.16804,0.67214 -0.50411,1.17625 -0.67214,1.68035l-12.26656,-8.06568l0,0.50411s12.09853,8.06568 12.09853,8.06568c-0.50411,1.17625 -1.34428,2.18446 -2.01642,4.20088l-18.31583,-6.04926l0,0.50411s18.14779,6.04926 18.14779,6.04926c-0.67214,2.01642 -0.67214,3.19267 -0.84018,4.53695l-14.78709,-0.67214l0,0.50411s14.61905,0.67214 14.61905,0.67214c0,0.50411 -0.33607,1.17625 -0.50411,1.84839c-0.84018,2.52053 -14.28298,9.24193 -23.86098,7.39354c-9.578,-2.01642 -13.44281,-8.06568 -7.89765,-25.20526l0.16804,-0.16804l0.00001,-0.00002zm46.04162,60.49264c-4.87302,8.56979 -11.76246,10.25014 -26.38151,-0.33607c-14.61905,-10.58621 -15.12316,-17.81172 -8.56979,-25.03723c6.55337,-7.22551 21.50849,-9.578 23.69295,-8.06568c0.50411,0.33607 1.00821,0.84018 1.34428,1.17625l-11.42639,9.24193l0.33607,0.33607l11.42639,-9.24193c1.00821,0.84018 1.68035,2.01642 3.3607,3.19267l-11.42639,15.62726l0.50411,0.33607l11.42639,-15.62726c1.68035,1.17625 2.8566,1.51232 4.03284,2.18446l-5.20909,13.77888l0.50411,0.33607l5.20909,-13.77888s1.00821,0.67214 1.51232,1.00821c2.18446,1.51232 4.36891,16.46744 -0.33607,25.03723l0,-0.16804l-0.00001,-0.00001zm-9.40997,-43.85716c0,-8.06568 6.55337,-14.61905 14.61905,-14.61905s14.61905,6.55337 14.61905,14.61905s-6.55337,14.61905 -14.61905,14.61905s-14.61905,-6.55337 -14.61905,-14.61905zm46.37769,43.52109c-14.61905,10.58621 -21.67653,8.90586 -26.38151,0.33607c-4.87302,-8.56979 -2.52053,-23.52491 -0.33607,-25.03723c0.50411,-0.33607 1.00821,-0.67214 1.51232,-1.00821l5.20909,13.77888l0.50411,-0.33607l-5.20909,-13.77888c1.17625,-0.67214 2.35249,-1.00821 4.03284,-2.18446l11.42639,15.62726l0.50411,-0.33607l-11.42639,-15.62726c1.68035,-1.17625 2.35249,-2.35249 3.3607,-3.19267l11.59442,9.24193l0.33607,-0.33607l-11.42639,-9.24193s0.84018,-0.67214 1.34428,-1.17625c2.18446,-1.51232 16.97155,0.84018 23.69295,8.06568c6.55337,7.22551 6.2173,14.45102 -8.56979,25.03723l-0.16804,0.16804l0,0.00001zm11.76246,-34.9513c-9.578,2.01642 -23.02081,-4.87302 -23.86098,-7.39354c-0.16804,-0.67214 -0.33607,-1.17625 -0.50411,-1.84839l14.78709,-0.67214l0,-0.50411s-14.78709,0.67214 -14.78709,0.67214c-0.33607,-1.34428 -0.16804,-2.52053 -0.84018,-4.53695l18.31583,-6.04926l0,-0.50411s-18.48386,6.04926 -18.48386,6.04926c-0.67214,-1.84839 -1.51232,-3.02463 -2.01642,-4.20088l12.4346,-8.06568l0,-0.50411s-12.60263,8.06568 -12.60263,8.06568c-0.16804,-0.50411 -0.50411,-1.00821 -0.67214,-1.68035c-0.84018,-2.52053 6.04926,-15.96333 14.95512,-19.99618c8.90586,-4.03284 15.62726,-1.34428 21.17242,15.7953c5.54516,17.13958 1.68035,23.35688 -7.89765,25.20526l0,0.16804l0,0.00002z" class="cls-2" stroke="null"/>
    <path id="svg_3" fill="#F5A9B8" d="m128,120.64894c-4.20088,0 -7.56158,3.3607 -7.56158,7.56158s3.3607,7.56158 7.56158,7.56158s7.56158,-3.3607 7.56158,-7.56158s-3.3607,-7.56158 -7.56158,-7.56158z" class="cls-2" stroke="null"/>
    <path id="svg_4" fill="#5BCEFA" d="m128,13.10648c-63.51727,0 -115.10404,51.58678 -115.10404,115.10404s51.58678,115.10404 115.10404,115.10404s115.10404,-51.58678 115.10404,-115.10404s-51.58678,-115.10404 -115.10404,-115.10404zm106.53425,83.84951c1.00821,3.52874 -4.87302,10.75425 -10.92228,12.4346c-5.37712,1.51232 -24.86919,5.04105 -26.04544,5.37712c-1.00821,0.16804 -1.84839,-0.50411 -2.35249,-2.18446c-0.50411,-1.84839 0,-2.8566 0.84018,-3.02463c0.84018,-0.16804 20.66832,-6.04926 22.34867,-6.55337c1.68035,-0.50411 3.02463,-1.68035 2.8566,-2.01642c0,-0.50411 -1.84839,-0.67214 -3.52874,-0.16804c-1.68035,0.50411 -21.50849,6.38533 -22.34867,6.55337c-0.84018,0.16804 -1.68035,-0.33607 -2.35249,-2.18446c-0.50411,-1.68035 -0.16804,-2.68856 0.67214,-3.19267s19.32404,-7.89765 24.70116,-9.578c6.04926,-1.84839 14.95512,1.00821 15.96333,4.53695l0.16804,0l-0.00001,0.00001zm-13.10674,-28.734c2.01642,3.19267 -1.68035,11.76246 -6.88944,15.12316c-4.70498,3.02463 -22.5167,11.93049 -23.35688,12.4346c-1.00821,0.50411 -1.84839,0 -2.8566,-1.51232c-1.00821,-1.68035 -0.84018,-2.68856 0,-3.19267s18.14779,-11.59442 19.66011,-12.60263s2.52053,-2.52053 2.18446,-2.8566s-2.01642,0 -3.52874,0.84018s-18.81993,12.09853 -19.66011,12.60263c-0.67214,0.50411 -1.68035,0.16804 -2.8566,-1.34428c-1.00821,-1.51232 -1.00821,-2.52053 0,-3.19267c0.84018,-0.67214 16.2994,-13.10674 21.00439,-16.13137c5.37712,-3.52874 14.61905,-3.19267 16.63547,0l-0.33607,-0.16804l0.00001,0.00001zm-20.66832,-23.86098c2.8566,2.52053 1.68035,11.59442 -2.35249,16.46744c-3.69677,4.20088 -18.14779,17.81172 -18.98797,18.48386c-0.84018,0.67214 -1.84839,0.50411 -3.19267,-0.67214c-1.51232,-1.34428 -1.51232,-2.35249 -1.00821,-3.02463c0.50411,-0.67214 14.11495,-16.2994 15.29119,-17.64369c1.17625,-1.34428 1.68035,-3.02463 1.34428,-3.3607c-0.33607,-0.33607 -2.01642,0.50411 -3.19267,1.84839c-1.17625,1.34428 -14.61905,16.97155 -15.29119,17.64369c-0.50411,0.67214 -1.68035,0.67214 -3.02463,-0.50411c-1.34428,-1.17625 -1.68035,-2.18446 -1.00821,-3.02463c0.67214,-0.84018 11.93049,-17.13958 15.62726,-21.50849c4.03284,-4.87302 13.10674,-7.22551 15.96333,-4.70498l-0.16804,0l0.00002,-0.00001zm-40.49646,-8.06568c2.52053,-5.71319 10.58621,-10.58621 13.94691,-9.0739c3.3607,1.51232 5.04105,10.75425 2.35249,16.46744c-2.35249,5.04105 -12.4346,22.18063 -12.9387,23.02081c-0.50411,1.00821 -1.51232,1.00821 -3.19267,0.33607c-1.84839,-0.84018 -2.18446,-1.84839 -1.84839,-2.52053c0.33607,-0.84018 8.90586,-19.66011 9.74604,-21.17242c0.67214,-1.68035 0.67214,-3.3607 0.33607,-3.52874c-0.33607,-0.16804 -1.68035,1.00821 -2.52053,2.52053s-9.40997,20.50028 -9.74604,21.17242c-0.33607,0.84018 -1.34428,1.17625 -3.19267,0.33607c-1.68035,-0.67214 -2.18446,-1.68035 -1.84839,-2.68856c0.33607,-1.00821 6.55337,-19.82814 8.90586,-25.03723l0,0.16804l0.00002,0zm-27.22169,-5.37712c0.84018,-6.2173 7.05747,-13.10674 10.75425,-12.60263c3.69677,0.50411 7.72961,8.90586 6.88944,15.12316c-0.84018,5.54516 -5.71319,24.86919 -6.04926,25.87741c-0.16804,1.00821 -1.17625,1.51232 -3.02463,1.17625c-1.84839,-0.33607 -2.52053,-1.17625 -2.52053,-2.01642c0,-0.84018 3.02463,-21.34046 3.3607,-23.02081c0.16804,-1.68035 -0.16804,-3.3607 -0.67214,-3.52874c-0.50411,0 -1.34428,1.34428 -1.68035,3.19267s-3.19267,22.18063 -3.3607,23.02081s-1.00821,1.51232 -2.8566,1.17625c-1.68035,-0.33607 -2.52053,-0.84018 -2.52053,-2.01642c0,-1.00821 0.84018,-20.83635 1.51232,-26.38151l0.16804,0l-0.00001,-0.00002zm-20.83635,-12.60263c3.69677,-0.50411 9.91407,6.38533 10.75425,12.60263c0.84018,5.54516 1.51232,25.3733 1.51232,26.38151c0,1.00821 -0.84018,1.68035 -2.52053,2.01642c-1.84839,0.33607 -2.8566,-0.33607 -2.8566,-1.17625s-3.02463,-21.34046 -3.3607,-23.02081c-0.16804,-1.68035 -1.17625,-3.19267 -1.68035,-3.19267c-0.50411,0 -1.00821,1.68035 -0.67214,3.52874c0.16804,1.68035 3.19267,22.18063 3.3607,23.02081s-0.50411,1.68035 -2.52053,2.01642c-1.68035,0.33607 -2.68856,0 -3.02463,-1.17625c-0.16804,-1.00821 -5.20909,-20.33225 -6.04926,-25.87741c-1.00821,-6.2173 3.19267,-14.61905 6.88944,-15.12316l0.16804,0l-0.00001,0.00002zm-30.24632,8.90586c3.3607,-1.51232 11.25835,3.19267 13.94691,9.0739c2.35249,5.20909 8.56979,24.02902 8.90586,25.03723c0.33607,1.00821 -0.33607,1.84839 -1.84839,2.68856c-1.84839,0.84018 -2.68856,0.50411 -3.19267,-0.33607c-0.33607,-0.84018 -8.90586,-19.66011 -9.74604,-21.17242c-0.67214,-1.68035 -2.01642,-2.68856 -2.52053,-2.52053c-0.50411,0.16804 -0.50411,2.01642 0.33607,3.52874c0.67214,1.68035 9.24193,20.50028 9.74604,21.17242c0.33607,0.84018 0,1.84839 -1.84839,2.52053c-1.68035,0.67214 -2.68856,0.67214 -3.19267,-0.33607c-0.50411,-1.00821 -10.58621,-17.97976 -12.9387,-23.02081c-2.68856,-5.71319 -1.17625,-14.95512 2.35249,-16.46744l0,-0.16804l0.00002,0zm-26.54955,17.13958c2.8566,-2.52053 11.76246,0 15.96333,4.70498c3.69677,4.20088 14.95512,20.50028 15.62726,21.50849c0.67214,0.84018 0.33607,1.84839 -1.00821,3.02463c-1.51232,1.34428 -2.52053,1.17625 -3.02463,0.50411c-0.50411,-0.67214 -14.11495,-16.2994 -15.29119,-17.64369c-1.17625,-1.34428 -2.68856,-2.01642 -3.19267,-1.84839c-0.33607,0.33607 0,2.01642 1.34428,3.3607c1.17625,1.34428 14.61905,16.97155 15.29119,17.64369c0.50411,0.67214 0.50411,1.68035 -1.00821,3.02463c-1.34428,1.17625 -2.35249,1.34428 -3.19267,0.67214s-15.29119,-14.28298 -18.98797,-18.48386c-4.20088,-4.70498 -5.20909,-13.94691 -2.35249,-16.46744l-0.16804,0l0.00002,0.00001zm-20.66832,23.86098c2.01642,-3.19267 11.25835,-3.3607 16.63547,0c4.70498,3.02463 20.16421,15.45923 21.00439,16.13137c0.84018,0.67214 0.84018,1.68035 0,3.19267c-1.00821,1.68035 -2.01642,1.84839 -2.8566,1.34428c-0.67214,-0.50411 -18.14779,-11.59442 -19.66011,-12.60263c-1.51232,-1.00821 -3.19267,-1.17625 -3.52874,-0.84018c-0.16804,0.33607 0.67214,1.84839 2.18446,2.8566c1.51232,1.00821 18.81993,12.09853 19.66011,12.60263c0.67214,0.50411 1.00821,1.51232 0,3.19267c-1.00821,1.51232 -1.84839,2.01642 -2.8566,1.51232c-1.00821,-0.50411 -18.6519,-9.40997 -23.35688,-12.4346c-5.37712,-3.3607 -8.90586,-11.93049 -6.88944,-15.12316l-0.33607,0.16804l0.00001,-0.00001zm2.8566,24.02902c5.37712,1.68035 23.69295,9.24193 24.70116,9.578c1.00821,0.33607 1.17625,1.34428 0.67214,3.19267c-0.50411,1.84839 -1.51232,2.35249 -2.35249,2.18446c-0.84018,-0.16804 -20.66832,-6.04926 -22.34867,-6.55337c-1.68035,-0.50411 -3.3607,-0.16804 -3.52874,0.16804c0,0.50411 1.17625,1.68035 2.8566,2.01642c1.68035,0.50411 21.50849,6.38533 22.34867,6.55337c0.84018,0.16804 1.34428,1.17625 0.84018,3.02463c-0.50411,1.68035 -1.34428,2.52053 -2.35249,2.18446c-1.00821,-0.16804 -20.50028,-3.69677 -26.04544,-5.37712c-6.04926,-1.68035 -11.93049,-8.90586 -10.92228,-12.4346c1.00821,-3.52874 9.91407,-6.38533 15.96333,-4.53695l0.16804,0l-0.00001,-0.00001zm-20.50028,35.95951c0,-3.69677 7.72961,-8.90586 13.94691,-8.90586c5.54516,0 25.3733,2.18446 26.38151,2.18446c1.00821,0 1.68035,1.00821 1.68035,2.8566c0,2.01642 -0.67214,2.68856 -1.68035,2.68856s-21.50849,0 -23.35688,0s-3.3607,0.67214 -3.3607,1.17625s1.68035,1.17625 3.3607,1.17625s22.5167,0 23.35688,0s1.68035,0.67214 1.68035,2.68856c0,1.84839 -0.50411,2.68856 -1.68035,2.8566c-1.00821,0 -20.83635,2.18446 -26.38151,2.18446c-6.38533,0 -13.94691,-5.20909 -13.94691,-8.90586l0,-0.00002zm4.53695,31.25453c-1.00821,-3.52874 4.87302,-10.75425 10.92228,-12.4346c5.37712,-1.51232 24.86919,-5.04105 26.04544,-5.37712c1.00821,-0.16804 1.84839,0.50411 2.35249,2.18446c0.50411,1.84839 0,2.8566 -0.84018,3.02463c-0.84018,0.16804 -20.66832,6.04926 -22.34867,6.55337c-1.68035,0.50411 -3.02463,1.68035 -2.8566,2.01642s1.84839,0.67214 3.52874,0.16804c1.68035,-0.50411 21.50849,-6.38533 22.34867,-6.55337c0.84018,-0.16804 1.68035,0.33607 2.35249,2.18446c0.50411,1.68035 0.16804,2.68856 -0.67214,3.19267c-1.00821,0.33607 -19.32404,7.89765 -24.70116,9.578c-6.04926,1.84839 -14.95512,-1.00821 -15.96333,-4.53695l-0.16804,0l0.00001,-0.00001zm13.10674,28.734c-2.01642,-3.19267 1.68035,-11.76246 6.88944,-15.12316c4.70498,-3.02463 22.5167,-11.93049 23.35688,-12.4346c1.00821,-0.50411 1.84839,0 2.8566,1.51232c1.00821,1.68035 0.84018,2.68856 0,3.19267c-0.67214,0.50411 -18.14779,11.59442 -19.66011,12.60263c-1.51232,1.00821 -2.52053,2.52053 -2.18446,2.8566c0.16804,0.33607 2.01642,0 3.52874,-0.84018c1.51232,-1.00821 18.81993,-12.09853 19.66011,-12.60263c0.67214,-0.50411 1.68035,-0.16804 2.8566,1.34428c1.00821,1.51232 1.00821,2.52053 0,3.19267c-0.84018,0.67214 -16.2994,13.10674 -21.00439,16.13137c-5.37712,3.52874 -14.61905,3.19267 -16.63547,0l0.33607,0.16804l-0.00001,-0.00001zm20.66832,23.86098c-2.8566,-2.52053 -1.68035,-11.59442 2.35249,-16.46744c3.69677,-4.20088 18.14779,-17.81172 18.98797,-18.48386c0.84018,-0.67214 1.84839,-0.50411 3.19267,0.67214c1.51232,1.34428 1.51232,2.35249 1.00821,3.02463c-0.50411,0.67214 -14.11495,16.2994 -15.29119,17.64369c-1.17625,1.34428 -1.68035,3.02463 -1.34428,3.3607s2.01642,-0.50411 3.19267,-1.84839c1.17625,-1.34428 14.61905,-16.97155 15.29119,-17.64369c0.50411,-0.67214 1.68035,-0.67214 3.02463,0.50411c1.34428,1.17625 1.68035,2.18446 1.00821,3.02463c-0.67214,0.84018 -11.93049,17.13958 -15.62726,21.50849c-4.03284,4.87302 -13.10674,7.22551 -15.96333,4.70498l0.16804,0l-0.00002,0.00001zm40.49646,8.06568c-2.52053,5.71319 -10.58621,10.58621 -13.94691,9.0739c-3.3607,-1.51232 -5.04105,-10.75425 -2.35249,-16.46744c2.35249,-5.04105 12.4346,-22.18063 12.9387,-23.02081c0.50411,-1.00821 1.51232,-1.00821 3.19267,-0.33607c1.84839,0.84018 2.18446,1.84839 1.84839,2.52053c-0.33607,0.84018 -8.90586,19.66011 -9.74604,21.17242s-0.67214,3.3607 -0.33607,3.52874c0.50411,0.16804 1.68035,-1.00821 2.52053,-2.52053c0.67214,-1.68035 9.40997,-20.50028 9.74604,-21.17242c0.33607,-0.84018 1.34428,-1.17625 3.19267,-0.33607c1.68035,0.67214 2.18446,1.68035 1.84839,2.68856c-0.33607,1.00821 -6.55337,19.82814 -8.90586,25.03723l0,-0.16804l-0.00002,0zm27.22169,5.37712c-0.84018,6.2173 -7.05747,13.10674 -10.75425,12.60263c-3.69677,-0.50411 -7.72961,-8.90586 -6.88944,-15.12316c0.84018,-5.54516 5.71319,-24.86919 6.04926,-25.87741c0.16804,-1.00821 1.17625,-1.51232 3.02463,-1.17625c1.84839,0.33607 2.52053,1.17625 2.52053,2.01642c0,0.84018 -3.02463,21.34046 -3.3607,23.02081c-0.16804,1.68035 0.16804,3.3607 0.67214,3.52874c0.50411,0 1.34428,-1.34428 1.68035,-3.19267c0.16804,-1.68035 3.19267,-22.18063 3.3607,-23.02081s1.00821,-1.51232 2.8566,-1.17625c1.68035,0.16804 2.52053,0.84018 2.52053,2.01642c0,1.00821 -0.84018,20.83635 -1.51232,26.54955l-0.16804,-0.16804l0.00001,0.00002zm-57.13193,-97.29232c0,-34.27916 27.89383,-62.17299 62.17299,-62.17299s62.17299,27.89383 62.17299,62.17299s-27.89383,62.17299 -62.17299,62.17299s-62.17299,-27.89383 -62.17299,-62.17299zm77.96829,109.89496c-3.69677,0.50411 -9.91407,-6.38533 -10.75425,-12.60263c-0.84018,-5.54516 -1.51232,-25.3733 -1.51232,-26.54955c0,-1.00821 0.84018,-1.68035 2.52053,-2.01642c1.84839,-0.33607 2.8566,0.33607 2.8566,1.17625s3.02463,21.34046 3.3607,23.02081s1.17625,3.19267 1.68035,3.19267c0.50411,0 1.00821,-1.68035 0.67214,-3.52874c-0.33607,-1.68035 -3.19267,-22.18063 -3.3607,-23.02081c0,-0.84018 0.50411,-1.68035 2.52053,-2.01642c1.68035,-0.33607 2.68856,0 3.02463,1.17625c0.16804,1.00821 5.20909,20.33225 6.04926,25.87741c1.00821,6.2173 -3.19267,14.61905 -6.88944,15.12316l-0.16804,0.16804l0.00001,-0.00002zm30.24632,-8.90586c-3.3607,1.51232 -11.25835,-3.19267 -13.94691,-9.0739c-2.35249,-5.20909 -8.56979,-24.02902 -8.90586,-25.03723c-0.33607,-1.00821 0.33607,-1.84839 1.84839,-2.68856c1.84839,-0.84018 2.68856,-0.50411 3.19267,0.33607c0.33607,0.84018 8.90586,19.66011 9.74604,21.17242c0.67214,1.68035 2.01642,2.68856 2.52053,2.52053c0.50411,-0.16804 0.50411,-2.01642 -0.33607,-3.52874c-0.67214,-1.68035 -9.24193,-20.50028 -9.74604,-21.17242c-0.33607,-0.84018 0,-1.84839 1.84839,-2.52053c1.68035,-0.67214 2.68856,-0.67214 3.19267,0.33607c0.50411,1.00821 10.58621,17.97976 12.9387,23.02081c2.68856,5.71319 1.17625,14.95512 -2.35249,16.46744l0,0.16804l-0.00002,0zm26.54955,-17.13958c-2.8566,2.52053 -11.76246,0 -15.96333,-4.70498c-3.69677,-4.20088 -14.95512,-20.50028 -15.62726,-21.50849c-0.67214,-0.84018 -0.33607,-1.84839 1.00821,-3.02463c1.51232,-1.34428 2.52053,-1.17625 3.02463,-0.50411c0.50411,0.67214 14.11495,16.2994 15.29119,17.64369c1.17625,1.34428 2.68856,2.01642 3.19267,1.84839c0.33607,-0.33607 0,-2.01642 -1.34428,-3.3607c-1.17625,-1.34428 -14.61905,-16.97155 -15.29119,-17.64369s-0.50411,-1.68035 1.00821,-3.02463c1.34428,-1.17625 2.35249,-1.34428 3.19267,-0.67214c0.84018,0.67214 15.29119,14.28298 18.98797,18.48386c4.20088,4.70498 5.20909,13.94691 2.35249,16.46744l0.16804,0l-0.00002,-0.00001zm20.66832,-23.86098c-2.01642,3.19267 -11.25835,3.3607 -16.63547,0c-4.70498,-3.02463 -20.16421,-15.45923 -21.00439,-16.13137c-0.84018,-0.67214 -0.84018,-1.68035 0,-3.19267c1.00821,-1.68035 2.01642,-1.84839 2.8566,-1.34428c0.67214,0.50411 18.14779,11.59442 19.66011,12.60263s3.19267,1.17625 3.52874,0.84018s-0.67214,-1.84839 -2.18446,-2.8566s-18.81993,-12.09853 -19.66011,-12.60263c-0.67214,-0.50411 -1.00821,-1.51232 0,-3.19267c1.00821,-1.51232 1.84839,-2.01642 2.8566,-1.51232c1.00821,0.50411 18.6519,9.40997 23.35688,12.4346c5.37712,3.3607 8.90586,11.93049 6.88944,15.12316l0.33607,-0.16804l-0.00001,0.00001zm-2.8566,-24.02902c-5.37712,-1.68035 -23.69295,-9.24193 -24.70116,-9.578s-1.17625,-1.34428 -0.67214,-3.19267c0.50411,-1.84839 1.51232,-2.35249 2.35249,-2.18446c0.84018,0.16804 20.66832,6.04926 22.34867,6.55337c1.68035,0.50411 3.3607,0.16804 3.52874,-0.16804c0,-0.50411 -1.17625,-1.68035 -2.8566,-2.01642s-21.50849,-6.38533 -22.34867,-6.55337c-0.84018,-0.16804 -1.34428,-1.17625 -0.84018,-3.02463c0.50411,-1.68035 1.34428,-2.52053 2.35249,-2.18446c1.00821,0.16804 20.50028,3.69677 26.04544,5.37712c6.04926,1.68035 11.93049,8.90586 10.92228,12.4346s-9.91407,6.38533 -15.96333,4.53695l-0.16804,0l0.00001,0.00001zm6.38533,-26.88562c-5.71319,0 -25.3733,-2.18446 -26.38151,-2.18446s-1.68035,-1.00821 -1.68035,-2.8566c0,-2.01642 0.67214,-2.68856 1.68035,-2.68856s21.50849,0 23.35688,0s3.3607,-0.67214 3.3607,-1.17625s-1.68035,-1.17625 -3.3607,-1.17625s-22.5167,0 -23.35688,0s-1.68035,-0.67214 -1.68035,-2.68856c0,-1.84839 0.50411,-2.68856 1.68035,-2.8566s20.83635,-2.18446 26.38151,-2.18446c6.38533,0 13.94691,5.20909 13.94691,8.90586s-7.72961,8.90586 -13.94691,8.90586l0,0.00002z" class="cls-1" stroke="null"/>
    <path id="svg_5" fill="#F5A9B8" d="m128,2.1842c-69.56653,0 -126.02632,56.45979 -126.02632,126.02632s56.45979,126.02632 126.02632,126.02632s126.02632,-56.45979 126.02632,-126.02632s-56.45979,-126.02632 -126.02632,-126.02632zm0,245.33125c-65.70172,0 -119.30492,-53.43516 -119.30492,-119.30492s53.6032,-119.30492 119.30492,-119.30492s119.30492,53.43516 119.30492,119.30492s-53.43516,119.30492 -119.30492,119.30492z" class="cls-1" stroke="null"/>
</svg>